  <svg xmlns="http://www.w3.org/2000/svg" version="1.1" viewBox="-5 -10 111 135" fill="#2563eb" style="display:block;">

    <path d="m76.266 28.535c-0.43359 0.33984-0.51172 0.96875-0.17188 1.4023 5.3633 6.8438 8.1953 15.043 8.1953 23.719 0 21.367-17.562 38.75-39.145 38.75s-39.145-17.383-39.145-38.75c0-21.363 17.562-38.746 39.145-38.746 8.9727 0 17.41 2.9258 24.41 8.4648 0.4375 0.34375 1.0625 0.26953 1.4023-0.16406 0.34375-0.43359 0.26953-1.0625-0.16406-1.4023-7.3555-5.8203-16.227-8.8945-25.652-8.8945-22.684-0.003906-41.141 18.277-41.141 40.742 0 22.469 18.457 40.75 41.145 40.75s41.145-18.281 41.145-40.75c0-9.125-2.9805-17.754-8.6211-24.949-0.33984-0.43359-0.96875-0.51172-1.4023-0.17188z"/>

    <path d="m61.484 32.664c0.33594-0.4375 0.25-1.0664-0.19141-1.3984-4.6953-3.5664-10.273-5.4531-16.129-5.4531-14.969 0-27.145 12.488-27.145 27.84 0 15.352 12.176 27.84 27.145 27.84 14.965 0 27.141-12.488 27.141-27.84 0-5.3867-1.5039-10.609-4.3477-15.113-0.29297-0.46484-0.91016-0.60547-1.3789-0.3125-0.46875 0.29688-0.60547 0.91406-0.3125 1.3789 2.6406 4.1836 4.0391 9.0391 4.0391 14.047 0 14.246-11.277 25.84-25.141 25.84-13.863 0-25.145-11.594-25.145-25.84 0-14.25 11.277-25.84 25.145-25.84 5.4141 0 10.574 1.7422 14.922 5.043 0.4375 0.33203 1.0664 0.25 1.3984-0.19141z"/>

    <path d="m44.816 41.145c1.9766 0 3.9375 0.51172 5.6719 1.4805 0.48047 0.26953 1.0898 0.097656 1.3594-0.38672 0.26953-0.48047 0.097656-1.0898-0.38672-1.3594-2.0312-1.1367-4.3281-1.7344-6.6445-1.7344-7.7109 0-13.98 6.4883-13.98 14.465s6.2734 14.465 13.98 14.465c7.7109 0 13.98-6.4883 13.98-14.465 0-1.6523-0.26953-3.2734-0.79688-4.8242-0.17969-0.52344-0.74609-0.80078-1.2695-0.62109-0.52344 0.17969-0.80078 0.74609-0.62109 1.2695 0.45703 1.3398 0.69141 2.7461 0.69141 4.1797 0 6.8711-5.375 12.465-11.98 12.465-6.6055 0-11.98-5.5938-11.98-12.465-0.003906-6.8789 5.3711-12.469 11.977-12.469z"/>

    <path d="m95.934 14.98c-0.14844-0.38281-0.51562-0.63281-0.92578-0.63672l-7.8945-0.058594c-0.023437-0.035156-0.035156-0.074218-0.066406-0.10547-0.074219-0.078126-0.16797-0.13281-0.25781-0.17969l0.36719-7.3555c0.019531-0.40625-0.20703-0.78516-0.57422-0.95703-0.37109-0.17188-0.80469-0.10547-1.1055 0.17188l-8.4141 7.8086c-0.19531 0.18359-0.3125 0.4375-0.32031 0.70312l-0.26172 8.4492-32.285 30.641c-0.39844 0.37891-0.41797 1.0156-0.035156 1.4141 0.19531 0.20703 0.46094 0.3125 0.72656 0.3125 0.24609 0 0.49609-0.089844 0.6875-0.27344l32.297-30.648 8.2305 0.34375h0.042969c0.25391 0 0.49609-0.097656 0.68359-0.26953l8.8594-8.2695c0.29297-0.27734 0.39062-0.71094 0.24609-1.0898zm-17.203-0.12891 6.3047-5.8516-0.30078 5.9922-6.1914 5.875zm7.0352 7.7422-5.875-0.24609 6.3984-6.0703 6.1953 0.046875z"/>

  </svg>